# xmcd
# Track frame offsets:
# 225
# 14134
# 39734
# 52733
# 72665
# 89523
# 102205
# 115801
# 136651
# 150469
#
# Disc length: 2272 seconds
# Revision: 0
# Processed by: cddbd v1.4PL0 Copyright (c) Steve Scherf et al.
# Submitted via: VisiTrax 2.9.3.171 - For more info visit www.synapsa.com
#
DISCID=8208dd0a
DTITLE=Josh White - Blues And
DYEAR=1956
DGENRE=
TTITLE0=How Long Blues
TTITLE1=Careless Love
TTITLE2=Oh Lula
TTITLE3=St Luois Blues
TTITLE4=Kansas City Blues
TTITLE5=I Had To Stoop To Conquer You
TTITLE6=I Know How To Do It
TTITLE7=Drink´s Blues
TTITLE8=Mint Julep
TTITLE9=Good Morning Blues
EXTD=
EXTT0=
EXTT1=
EXTT2=
EXTT3=
EXTT4=
EXTT5=
EXTT6=
EXTT7=
EXTT8=
EXTT9=
PLAYORDER=
